# ProBuilder 4.0.5
# https://unity3d.com/unity/features/worldbuilding/probuilder
# 8/15/2019 3:02:32 PM

mtllib ./Gem.mtl
o Gem

g Cone
v -1 0 0
v -0.5 0 -0.8660254
v 0 -1.5 0
v 0.5 0 -0.8660254
v 1 0 8.742278E-08
v 0.4999999 0 0.8660254
v -0.4999999 0 0.8660254
v -0.5 0.4771132 0
v -0.25 0.4771132 -0.4330127
v 0.25 0.4771132 -0.4330127
v 0 0.4771132 0
v 0.5 0.4771132 4.371139E-08
v 0.25 0.4771132 0.4330127
v -0.2499999 0.4771132 0.4330127

vt 0 0
vt 1 0
vt 0.5 1.732051
vt 0.4999999 -0.4330128
vt 1.5 -0.4330128
vt 1 1.299038
vt -2.469679E-08 -0.8660254
vt 1 -0.8660254
vt 0.5 0.8660254
vt -1 -0.8660253
vt -0.5000001 0.8660256
vt -1.5 -0.4330128
vt -0.5000001 -0.4330128
vt -1 1.299038
vt -1 -3.99276E-09
vt -0.5000001 1.732051
vt 0.5 -0.1931999
vt 0.6911129 9.162321E-09
vt 0.3617354 0.9322809
vt 0.8719806 0.4661404
vt 1.25 0.2027233
vt 0.75 0.2027233
vt 0.5 0.7918464
vt 1.5 0.7918463
vt 1 -0.1931999
vt 1.446941 -0.5112087
vt 0.7558286 -0.5112087
vt 0.5749609 -0.04506823
vt 1.085206 0.4210722
vt 1.5 -0.1932
vt 1.446942 0.5112085
vt 1.085206 -0.4210723
vt 0.574961 0.04506819
vt 0.7558287 0.5112086
vt 1.25 -0.5891231
vt -0.7500001 -0.06229447
vt -1.25 -0.06229447
vt -1.5 0.5820168
vt -0.5000001 0.5820168
vt 0.7500001 -0.5891231
vt 0.8719807 -0.4661404
vt 0.3617355 -0.9322808

vn -0.75 -0.5 -0.4330127
vn 5.161913E-08 -0.5 -0.8660253
vn 0.75 -0.5 -0.4330127
vn 0.7499999 -0.5 0.4330128
vn 0 -0.5000001 0.8660254
vn -0.75 -0.5 0.4330128
vn 0 1 0
vn -0.6412928 0.6720551 -0.3702506
vn 4.413731E-08 0.6720551 -0.7405011
vn 0.6412928 0.6720551 -0.3702506
vn 0.6412928 0.6720551 0.3702506
vn 0 0.6720551 0.7405011
vn -0.6412928 0.6720551 0.3702506

g Cone
usemtl ProBuilderDefault
f 1/1/1 2/2/1 3/3/1
f 2/4/2 4/5/2 3/6/2
f 4/7/3 5/8/3 3/9/3
f 5/10/4 6/7/4 3/11/4
f 6/12/5 7/13/5 3/14/5
f 7/15/6 1/1/6 3/16/6
f 9/22/7 11/25/7 10/21/7
f 10/21/7 11/25/7 12/30/7
f 12/30/7 11/25/7 13/35/7
f 13/35/7 11/25/7 14/40/7
f 9/22/7 8/17/7 11/25/7
f 8/17/7 14/40/7 11/25/7
f 8/18/8 9/20/8 2/19/8
f 2/19/8 1/1/8 8/18/8
f 10/21/9 4/24/9 2/23/9
f 2/23/9 9/22/9 10/21/9
f 10/28/10 12/27/10 5/26/10
f 5/26/10 4/29/10 10/28/10
f 6/32/11 5/31/11 12/34/11
f 12/34/11 13/33/11 6/32/11
f 6/38/12 13/37/12 14/36/12
f 14/36/12 7/39/12 6/38/12
f 1/1/13 7/42/13 14/41/13
f 14/41/13 8/18/13 1/1/13

