# ProBuilder 4.0.5
# https://unity3d.com/unity/features/worldbuilding/probuilder
# 8/2/2019 7:46:36 PM

mtllib ./Ship.mtl
o Ship

g Ship Model
v -0.529 0.317 0
v -0.529 2.317 0
v -0.3825534 0.317 0.3535534
v -0.3825534 2.317 0.3535534
v -0.02899998 0.317 0.5
v -0.02899998 2.317 0.5
v 0.3245534 0.317 0.3535534
v 0.3245534 2.317 0.3535534
v 0.471 0.317 -4.371139E-08
v 0.471 2.317 -4.371139E-08
v 0.3245534 0.317 -0.3535534
v 0.3245534 2.317 -0.3535534
v -0.02899998 0.317 -0.5
v -0.02899998 2.317 -0.5
v -0.3825533 0.317 -0.3535534
v -0.3825533 2.317 -0.3535534
v -0.02899998 0.317 0
v -0.02899998 2.317 0
v -0.02899998 3.317 0
v 0 0.8010507 -0.3383001
v -0.06309825 0.8010507 -0.3383001
v 0 1.238123 -0.3327732
v -0.06309825 1.238123 -0.3327732
v -0.06309825 0 -1
v -0.06309825 0.3954139 -1
v 0 0 -1
v 0 0.3954139 -1
v 0.3383002 0.8010507 2.980232E-08
v 0.3383002 0.8010507 -0.06309822
v 0.3327733 1.238123 2.980232E-08
v 0.3327733 1.238123 -0.06309822
v 1 0 -0.06309819
v 1 0.3954139 -0.06309819
v 1 0 1.192093E-07
v 1 0.3954139 1.192093E-07
v 0 0.8010507 0.3383001
v 0.06309825 0.8010507 0.3383001
v 0 1.238123 0.3327732
v 0.06309825 1.238123 0.3327732
v 0.06309825 0 1
v 0.06309825 0.3954139 1
v 0 0 1
v 0 0.3954139 1
v -0.3383001 0.8010507 2.980232E-08
v -0.3383001 0.8010507 0.06309828
v -0.3327732 1.238123 2.980232E-08
v -0.3327732 1.238123 0.06309828
v -1 0 0.06309837
v -1 0.3954139 0.06309837
v -1 0 1.192093E-07
v -1 0.3954139 1.192093E-07

vt 0 0
vt 0 2
vt 0.3826834 0
vt 0.3826834 2
vt 0.2705981 0
vt 0.2705981 2
vt 0.6532815 0
vt 0.6532815 2
vt -0.3826834 0
vt -0.3826834 2
vt -0.6532815 0
vt -0.6532815 2
vt -0.270598 0
vt -0.270598 2
vt 0.5 0
vt 0.1464466 0.3535534
vt -0.5 0
vt -0.1464466 0.3535534
vt 0.5 0.5
vt -0.5 0.5
vt 0.8535534 0.3535534
vt -0.8535534 0.3535534
vt 1 -4.371139E-08
vt -1 -4.371139E-08
vt 0.8535534 -0.3535534
vt -0.8535534 -0.3535534
vt 0.5 -0.5
vt -0.5 -0.5
vt 0.1464467 -0.3535534
vt -0.1464467 -0.3535534
vt 0.1913417 1.101539
vt 0.2705981 -0.1134777
vt 0.6532815 -0.1134777
vt 0.4619397 0.9880614
vt 0.2705981 -0.2739592
vt 0.6532815 -0.2739592
vt 0.4619398 0.82758
vt -8.940697E-08 -0.3874369
vt 0.3826834 -0.3874369
vt 0.1913417 0.7141023
vt -0.3826835 -0.3874369
vt -0.1913416 0.7141023
vt -0.6532815 -0.2739592
vt -0.270598 -0.2739592
vt -0.4619398 0.82758
vt -0.6532816 -0.1134777
vt -0.2705982 -0.1134777
vt -0.4619397 0.9880614
vt -0.1913418 1.101539
vt 0 0.7967091
vt -0.06309825 0.7967091
vt 0 1.233817
vt -0.06309825 1.233817
vt -0.3383001 0.8010507
vt -0.3327732 1.238123
vt -1 0.3954139
vt 0.06309825 0
vt 0.06309825 0.3954139
vt 0 0.3954139
vt 0.3383001 0.8010507
vt 1 0.3954139
vt 0.3327732 1.238123
vt 0 0.7641304
vt 0.06309825 0.7641304
vt 0 -0.3107419
vt 0.06309825 -0.3107419
vt 0 -0.63686
vt -0.06309825 -0.63686
vt 0 0.4021439
vt -0.06309825 0.4021439
vt -0.9999999 0.3954139
vt 0.9999999 0
vt 0.9999999 0.3954139

vn -1 0 -4.83867E-08
vn -0.7071068 0 0.7071068
vn -1.61289E-08 0 1
vn 0.7071068 0 0.7071068
vn 1 0 -3.22578E-08
vn 0.7071068 0 -0.7071068
vn 6.45156E-08 0 -1
vn -0.7071067 0 -0.7071068
vn 0 -1 0
vn 0 1 0
vn -0.838717 0.4193585 0.347408
vn -0.347408 0.4193585 0.838717
vn 0.3474079 0.4193585 0.838717
vn 0.838717 0.4193585 0.3474079
vn 0.838717 0.4193585 -0.347408
vn 0.347408 0.4193585 -0.838717
vn -0.3474079 0.4193585 -0.838717
vn -0.838717 0.4193585 -0.3474081
vn 0 -0.01264426 0.9999201
vn 0 0.6207498 -0.7840087
vn 0 -0.63686 0.7709795
vn -0.9999201 -0.01264426 0
vn 0.7840087 0.6207498 0
vn -0.7709796 -0.6368599 0
vn 0 -0.01264426 -0.9999201
vn 0 0.6207498 0.7840087
vn 0 -0.63686 -0.7709795
vn 0.9999201 -0.01264426 0
vn -0.7840087 0.6207499 0
vn 0.7709795 -0.63686 0

g Ship Model
usemtl ProBuilderDefault
f 1/1/9 17/15/9 3/16/9
f 3/16/9 17/15/9 5/19/9
f 5/19/9 17/15/9 7/21/9
f 7/21/9 17/15/9 9/23/9
f 9/23/9 17/15/9 11/25/9
f 11/25/9 17/15/9 13/27/9
f 13/27/9 17/15/9 15/29/9
f 15/29/9 17/15/9 1/1/9
f 4/18/10 18/17/10 2/1/10
f 6/20/10 18/17/10 4/18/10
f 8/22/10 18/17/10 6/20/10
f 10/24/10 18/17/10 8/22/10
f 12/26/10 18/17/10 10/24/10
f 14/28/10 18/17/10 12/26/10
f 16/30/10 18/17/10 14/28/10
f 2/1/10 18/17/10 16/30/10
f 2/1/11 4/3/11 19/31/11
f 18/15/9 4/16/9 2/1/9
f 4/32/12 6/33/12 19/34/12
f 18/15/9 6/19/9 4/16/9
f 6/35/13 8/36/13 19/37/13
f 18/15/9 8/21/9 6/19/9
f 8/38/14 10/39/14 19/40/14
f 18/15/9 10/23/9 8/21/9
f 10/41/15 12/38/15 19/42/15
f 18/15/9 12/25/9 10/23/9
f 12/43/16 14/44/16 19/45/16
f 18/15/9 14/27/9 12/25/9
f 14/46/17 16/47/17 19/48/17
f 18/15/9 16/29/9 14/27/9
f 16/9/18 2/1/18 19/49/18
f 18/15/9 2/1/9 16/29/9
f 4/4/2 2/2/1 1/1/1
f 1/1/1 3/3/2 4/4/2
f 6/8/3 4/6/2 3/5/2
f 3/5/2 5/7/3 6/8/3
f 8/8/4 6/6/3 5/5/3
f 5/5/3 7/7/4 8/8/4
f 10/4/5 8/2/4 7/1/4
f 7/1/4 9/3/5 10/4/5
f 12/2/6 10/10/5 9/9/5
f 9/9/5 11/1/6 12/2/6
f 14/14/7 12/12/6 11/11/6
f 11/11/6 13/13/7 14/14/7
f 16/14/8 14/12/7 13/11/7
f 13/11/7 15/13/8 16/14/8
f 2/2/1 16/10/8 15/9/8
f 15/9/8 1/1/1 2/2/1
f 23/53/19 21/51/19 20/50/19
f 20/50/19 22/52/19 23/53/19
f 25/56/1 24/24/1 21/54/1
f 21/54/1 23/55/1 25/56/1
f 27/59/7 26/1/7 24/57/7
f 24/57/7 25/58/7 27/59/7
f 22/62/5 20/60/5 26/23/5
f 26/23/5 27/61/5 22/62/5
f 25/66/20 23/64/20 22/63/20
f 22/63/20 27/65/20 25/66/20
f 21/70/21 24/68/21 26/67/21
f 26/67/21 20/69/21 21/70/21
f 31/53/22 29/51/22 28/50/22
f 28/50/22 30/52/22 31/53/22
f 33/56/7 32/24/7 29/54/7
f 29/54/7 31/55/7 33/56/7
f 35/59/5 34/1/5 32/57/5
f 32/57/5 33/58/5 35/59/5
f 30/62/3 28/60/3 34/23/3
f 34/23/3 35/61/3 30/62/3
f 33/66/23 31/64/23 30/63/23
f 30/63/23 35/65/23 33/66/23
f 29/70/24 32/68/24 34/67/24
f 34/67/24 28/69/24 29/70/24
f 39/53/25 37/51/25 36/50/25
f 36/50/25 38/52/25 39/53/25
f 41/56/5 40/24/5 37/54/5
f 37/54/5 39/55/5 41/56/5
f 43/59/3 42/1/3 40/57/3
f 40/57/3 41/58/3 43/59/3
f 38/62/1 36/60/1 42/23/1
f 42/23/1 43/61/1 38/62/1
f 41/66/26 39/64/26 38/63/26
f 38/63/26 43/65/26 41/66/26
f 37/70/27 40/68/27 42/67/27
f 42/67/27 36/69/27 37/70/27
f 47/53/28 45/51/28 44/50/28
f 44/50/28 46/52/28 47/53/28
f 49/71/3 48/24/3 45/54/3
f 45/54/3 47/55/3 49/71/3
f 51/59/1 50/1/1 48/57/1
f 48/57/1 49/58/1 51/59/1
f 46/62/7 44/60/7 50/72/7
f 50/72/7 51/73/7 46/62/7
f 49/66/29 47/64/29 46/63/29
f 46/63/29 51/65/29 49/66/29
f 45/70/30 48/68/30 50/67/30
f 50/67/30 44/69/30 45/70/30

